# xmcd
#
# Track frame offsets:
#	150
#	10617
#	26012
#	38151
#	49088
#	61958
#	73853
#	84773
#	99280
#	108963
#	120509
#	133292
#	145553
#	157988
#	173296
#	193829
#	210495
#	225072
#
# Disc length: 3175 seconds
#
# Revision: 0
# Processed by: cddbd v1.5.2PL0 Copyright (c) Steve Scherf et al.
# Submitted via: EZCDAudioConverter 2.4.0.1
#
DISCID=d60c6512
DTITLE=Teodoro and Sampaio
DYEAR=2003
DGENRE=Sertanejo
TTITLE0=Meu Negócio é Mulher 
TTITLE1=Cheirinho de Mulher 
TTITLE2=Velho Galã
TTITLE3=O Gavião
TTITLE4=Se a Casa Cair
TTITLE5=De Parede e Meia
TTITLE6=Cheira Chumbo
TTITLE7=Água no Leite
TTITLE8=Quem Tem... Tem Medo
TTITLE9=Cantaram Minha Vizinha
TTITLE10=Feitiço De Amor
TTITLE11=Casa da Alegria
TTITLE12=Coração Vira-Lata
TTITLE13=Adeus Paixão
TTITLE14=Desafio
TTITLE15=Sou da Turma do Chapéu
TTITLE16=Fogo no Rabo
TTITLE17=Paixão Em Dose Dupla
EXTD=
EXTT0=
EXTT1=
EXTT2=
EXTT3=
EXTT4=
EXTT5=
EXTT6=
EXTT7=
EXTT8=
EXTT9=
EXTT10=
EXTT11=
EXTT12=
EXTT13=
EXTT14=
EXTT15=
EXTT16=
EXTT17=
PLAYORDER=
